<mxfile host="Electron" agent="Mozilla/5.0 (X11; Linux x86_64) AppleWebKit/537.36 (KHTML, like Gecko) draw.io/27.0.9 Chrome/134.0.6998.205 Electron/35.4.0 Safari/537.36" version="27.0.9">
  <diagram name="Page-1" id="JiPqsGi5ijKtKEBQfELp">
    <mxGraphModel dx="705" dy="840" grid="1" gridSize="10" guides="1" tooltips="1" connect="1" arrows="1" fold="1" page="1" pageScale="1" pageWidth="850" pageHeight="1100" math="0" shadow="0">
      <root>
        <mxCell id="0" />
        <mxCell id="1" parent="0" />
        <mxCell id="GmLUtXMjHcGutKOs2Pte-1" value="&lt;pre data-language=&quot;bash&quot;&gt;&lt;code&gt;&lt;div class=&quot;ec-line&quot;&gt;&lt;div class=&quot;code&quot;&gt;&lt;span style=&quot;--0:#82AAFF;--1:#3B61B0&quot;&gt;Subredes&lt;/span&gt;&lt;span style=&quot;--0:#D6DEEB;--1:#403F53&quot;&gt; &lt;/span&gt;&lt;span style=&quot;--0:#ECC48D;--1:#3B61B0&quot;&gt;=&lt;/span&gt;&lt;span style=&quot;--0:#D6DEEB;--1:#403F53&quot;&gt; &lt;/span&gt;&lt;span style=&quot;--0:#ECC48D;--1:#3B61B0&quot;&gt;2^&lt;/span&gt;&lt;span style=&quot;--0:#D6DEEB;--1:#403F53&quot;&gt;(&lt;/span&gt;&lt;span style=&quot;--0:#82AAFF;--1:#3B61B0&quot;&gt;bits_prestados&lt;/span&gt;&lt;span style=&quot;--0:#D6DEEB;--1:#403F53&quot;&gt;)&lt;/span&gt;&lt;/div&gt;&lt;/div&gt;&lt;div class=&quot;ec-line&quot;&gt;&lt;div class=&quot;code&quot;&gt;&lt;span style=&quot;--0:#82AAFF;--1:#3B61B0&quot;&gt;Hosts_por_subred&lt;/span&gt;&lt;span style=&quot;--0:#D6DEEB;--1:#403F53&quot;&gt; &lt;/span&gt;&lt;span style=&quot;--0:#ECC48D;--1:#3B61B0&quot;&gt;=&lt;/span&gt;&lt;span style=&quot;--0:#D6DEEB;--1:#403F53&quot;&gt; &lt;/span&gt;&lt;span style=&quot;--0:#ECC48D;--1:#3B61B0&quot;&gt;2^&lt;/span&gt;&lt;span style=&quot;--0:#D6DEEB;--1:#403F53&quot;&gt;(&lt;/span&gt;&lt;span style=&quot;--0:#82AAFF;--1:#3B61B0&quot;&gt;bits_host&lt;/span&gt;&lt;span style=&quot;--0:#D6DEEB;--1:#403F53&quot;&gt;) &lt;/span&gt;&lt;span style=&quot;--0:#ECC48D;--1:#3B61B0&quot;&gt;-&lt;/span&gt;&lt;span style=&quot;--0:#D6DEEB;--1:#403F53&quot;&gt; &lt;/span&gt;&lt;span style=&quot;--0:#F78C6C;--1:#AA0982&quot;&gt;2&lt;/span&gt;&lt;/div&gt;&lt;/div&gt;&lt;div class=&quot;ec-line&quot;&gt;&lt;div class=&quot;code&quot;&gt;&lt;span style=&quot;--0:#82AAFF;--1:#3B61B0&quot;&gt;Bits_prestados&lt;/span&gt;&lt;span style=&quot;--0:#D6DEEB;--1:#403F53&quot;&gt; &lt;/span&gt;&lt;span style=&quot;--0:#ECC48D;--1:#3B61B0&quot;&gt;=&lt;/span&gt;&lt;span style=&quot;--0:#D6DEEB;--1:#403F53&quot;&gt; &lt;/span&gt;&lt;span style=&quot;--0:#ECC48D;--1:#3B61B0&quot;&gt;nueva_máscara&lt;/span&gt;&lt;span style=&quot;--0:#D6DEEB;--1:#403F53&quot;&gt; &lt;/span&gt;&lt;span style=&quot;--0:#ECC48D;--1:#3B61B0&quot;&gt;-&lt;/span&gt;&lt;span style=&quot;--0:#D6DEEB;--1:#403F53&quot;&gt; &lt;/span&gt;&lt;span style=&quot;--0:#ECC48D;--1:#3B61B0&quot;&gt;máscara_original&lt;/span&gt;&lt;/div&gt;&lt;/div&gt;&lt;div class=&quot;ec-line&quot;&gt;&lt;div class=&quot;code&quot;&gt;&lt;span style=&quot;--0:#82AAFF;--1:#3B61B0&quot;&gt;Bits_host&lt;/span&gt;&lt;span style=&quot;--0:#D6DEEB;--1:#403F53&quot;&gt; &lt;/span&gt;&lt;span style=&quot;--0:#ECC48D;--1:#3B61B0&quot;&gt;=&lt;/span&gt;&lt;span style=&quot;--0:#D6DEEB;--1:#403F53&quot;&gt; &lt;/span&gt;&lt;span style=&quot;--0:#F78C6C;--1:#AA0982&quot;&gt;32&lt;/span&gt;&lt;span style=&quot;--0:#D6DEEB;--1:#403F53&quot;&gt; &lt;/span&gt;&lt;span style=&quot;--0:#ECC48D;--1:#3B61B0&quot;&gt;-&lt;/span&gt;&lt;span style=&quot;--0:#D6DEEB;--1:#403F53&quot;&gt; &lt;/span&gt;&lt;span style=&quot;--0:#ECC48D;--1:#3B61B0&quot;&gt;nueva_máscara&lt;/span&gt;&lt;/div&gt;&lt;/div&gt;&lt;/code&gt;&lt;/pre&gt;" style="shape=note;whiteSpace=wrap;html=1;backgroundOutline=1;fontColor=#000000;darkOpacity=0.05;fillColor=#FFF9B2;strokeColor=none;fillStyle=solid;direction=west;gradientDirection=north;gradientColor=#FFF2A1;shadow=1;size=20;pointerEvents=1;align=left;verticalAlign=top;" vertex="1" parent="1">
          <mxGeometry x="40" y="270" width="440" height="100" as="geometry" />
        </mxCell>
        <mxCell id="GmLUtXMjHcGutKOs2Pte-2" value="&lt;pre data-language=&quot;plaintext&quot;&gt;&lt;code&gt;&lt;div class=&quot;ec-line&quot;&gt;&lt;div class=&quot;code&quot;&gt;&lt;span style=&quot;--0:#d6deeb;--1:#403f53&quot;&gt;1. IDENTIFICAR: ¿Cuántas subredes necesito?&lt;/span&gt;&lt;/div&gt;&lt;/div&gt;&lt;div class=&quot;ec-line&quot;&gt;&lt;div class=&quot;code&quot;&gt;&lt;span style=&quot;--0:#d6deeb;--1:#403f53&quot;&gt;2. BUSCAR: En la escalera de potencias, encontrar 2^n ≥ subredes_necesarias&lt;/span&gt;&lt;/div&gt;&lt;/div&gt;&lt;div class=&quot;ec-line&quot;&gt;&lt;div class=&quot;code&quot;&gt;&lt;span style=&quot;--0:#d6deeb;--1:#403f53&quot;&gt;3. CALCULAR: nueva_máscara = máscara_original + n&lt;/span&gt;&lt;/div&gt;&lt;/div&gt;&lt;div class=&quot;ec-line&quot;&gt;&lt;div class=&quot;code&quot;&gt;&lt;span style=&quot;--0:#d6deeb;--1:#403f53&quot;&gt;4. VERIFICAR: ¿Es factible? (nueva_máscara ≤ 30 para LANs)&lt;/span&gt;&lt;/div&gt;&lt;/div&gt;&lt;div class=&quot;ec-line&quot;&gt;&lt;div class=&quot;code&quot; style=&quot;&quot;&gt;&lt;span style=&quot;--0:#d6deeb;--1:#403f53&quot;&gt;5. APLICAR: Método del salto para rangos específicos&lt;/span&gt;&lt;/div&gt;&lt;/div&gt;&lt;/code&gt;&lt;/pre&gt;" style="shape=note;whiteSpace=wrap;html=1;backgroundOutline=1;fontColor=#000000;darkOpacity=0.05;fillColor=#FFF9B2;strokeColor=none;fillStyle=solid;direction=west;gradientDirection=north;gradientColor=#FFF2A1;shadow=1;size=20;pointerEvents=1;verticalAlign=top;align=left;" vertex="1" parent="1">
          <mxGeometry x="40" y="400" width="590" height="160" as="geometry" />
        </mxCell>
        <mxCell id="GmLUtXMjHcGutKOs2Pte-4" value="&lt;div&gt;# Red inicial&lt;/div&gt;&lt;div&gt;-&amp;nbsp;&lt;span style=&quot;background-color: transparent; color: light-dark(rgb(0, 0, 0), rgb(237, 237, 237));&quot;&gt;192.168.1.0/24&lt;/span&gt;&lt;/div&gt;&lt;div&gt;&lt;br&gt;&lt;/div&gt;&lt;div&gt;&lt;br&gt;&lt;/div&gt;- Pide 4 subredes" style="shape=note;whiteSpace=wrap;html=1;backgroundOutline=1;fontColor=#000000;darkOpacity=0.05;fillColor=#FFF9B2;strokeColor=none;fillStyle=solid;direction=west;gradientDirection=north;gradientColor=#FFF2A1;shadow=1;size=20;pointerEvents=1;align=left;verticalAlign=top;" vertex="1" parent="1">
          <mxGeometry x="40" y="590" width="560" height="160" as="geometry" />
        </mxCell>
      </root>
    </mxGraphModel>
  </diagram>
</mxfile>
